Coordinates
version=1
nRows=31
nColumns=34
inDegrees=yes
inDegrees=no

Units are S.I. units (second, meters, Newtons, ...)
If the header above contains a line with 'inDegrees', this indicates whether rotational values are in degrees (yes) or radians (no).

endheader
time	pelvis_tilt	pelvis_list	pelvis_rotation	pelvis_tx	pelvis_ty	pelvis_tz	hip_flexion_r	hip_adduction_r	hip_rotation_r	knee_angle_r	ankle_angle_r	subtalar_angle_r	mtp_angle_r	hip_flexion_l	hip_adduction_l	hip_rotation_l	knee_angle_l	ankle_angle_l	subtalar_angle_l	mtp_angle_l	lumbar_extension	lumbar_bending	lumbar_rotation	arm_flex_r	arm_add_r	arm_rot_r	elbow_flex_r	pro_sup_r	arm_flex_l	arm_add_l	arm_rot_l	elbow_flex_l	pro_sup_l
0.000000 -0.353586 -0.101182 0.020318 -0.000080 0.008515 -0.007339 1.875438 -0.308617 0.104405 2.301086 0.371677 -0.570437 0.000000 1.969199 -0.376674 0.446921 2.256632 0.576563 -0.166423 0.000000 -0.714870 -0.052912 0.048262 1.407576 -0.033260 0.475670 1.750460 1.657141 1.339007 0.022277 0.582032 1.760536 1.647554
0.016667 -0.391793 -0.075895 0.037919 -0.000115 0.008774 -0.007344 1.868892 -0.278404 0.072791 2.237820 0.352077 -0.610865 0.000000 1.933638 -0.436437 0.340843 2.222275 0.600674 -0.060286 0.000000 -0.728471 -0.060399 0.022447 1.438732 -0.017291 0.442206 1.745458 1.691471 1.392273 -0.039417 0.584224 1.806665 1.582816
0.033333 -0.391469 -0.046866 0.047177 -0.000094 0.008906 -0.007311 1.888121 -0.285043 0.094947 2.236095 0.411624 -0.610865 0.000000 1.889090 -0.467989 0.267504 2.194788 0.600373 -0.047218 0.000000 -0.757105 -0.063441 -0.005224 1.454463 -0.000597 0.464277 1.775691 1.752004 1.407844 -0.068749 0.541145 1.884760 1.520111
0.050000 -0.387069 -0.039082 0.042570 -0.000127 0.008997 -0.007262 1.886548 -0.278378 0.090246 2.230104 0.435563 -0.610865 0.000000 1.865517 -0.492215 0.232624 2.176121 0.576601 -0.091020 0.000000 -0.784302 -0.076559 -0.006964 1.466640 -0.011806 0.474347 1.823180 1.761177 1.431342 -0.067929 0.529774 1.918355 1.517931
0.066667 -0.386258 -0.027266 0.034647 -0.000083 0.009085 -0.007274 1.873727 -0.264116 0.089637 2.223024 0.463972 -0.610865 0.000000 1.839208 -0.513658 0.200434 2.158368 0.576785 -0.101427 0.000000 -0.797739 -0.086162 -0.013704 1.465540 -0.003430 0.481630 1.843756 1.889245 1.426243 -0.075120 0.525132 1.949897 1.546359
0.083333 -0.381659 -0.020088 0.025220 -0.000113 0.009116 -0.007260 1.863652 -0.255012 0.089070 2.218444 0.473156 -0.610865 0.000000 1.825770 -0.526631 0.182865 2.151832 0.570695 -0.125141 0.000000 -0.809703 -0.095992 -0.013083 1.470496 -0.000609 0.491777 1.857664 1.893645 1.427885 -0.075005 0.523736 1.963740 1.552747
0.100000 -0.376947 -0.016070 0.018711 -0.000128 0.009146 -0.007232 1.855719 -0.248556 0.090703 2.214326 0.478891 -0.610865 0.000000 1.816239 -0.536522 0.173133 2.147670 0.567690 -0.137180 0.000000 -0.817907 -0.104102 -0.012466 1.470728 0.002382 0.496539 1.862978 1.897783 1.424729 -0.076871 0.525499 1.973269 1.559634
0.116667 -0.370188 -0.010855 0.016381 -0.000127 0.009197 -0.007238 1.846132 -0.247525 0.095070 2.209761 0.477296 -0.610865 0.000000 1.799122 -0.540873 0.159328 2.140886 0.561318 -0.151508 0.000000 -0.829922 -0.108610 -0.014080 1.473890 0.008402 0.501493 1.871653 1.907660 1.424257 -0.078543 0.531936 1.989503 1.577283
0.133333 -0.364411 -0.008823 0.014833 -0.000169 0.009211 -0.007218 1.841083 -0.246827 0.095064 2.205269 0.473755 -0.610865 0.000000 1.789179 -0.541659 0.153792 2.137150 0.559684 -0.163063 0.000000 -0.836918 -0.112949 -0.014541 1.471163 0.013545 0.492058 1.877332 2.003927 1.423346 -0.077343 0.533366 1.994981 1.760524
0.150000 -0.361111 -0.007754 0.013778 -0.000121 0.009236 -0.007174 1.835040 -0.244949 0.093473 2.202863 0.472394 -0.610865 0.000000 1.780029 -0.547084 0.151724 2.133296 0.554549 -0.167531 0.000000 -0.840973 -0.116719 -0.011832 1.467015 0.015691 0.495346 1.885911 2.004492 1.416889 -0.076648 0.541542 2.005181 1.763290
0.166667 -0.361189 -0.006737 0.013167 -0.000126 0.009299 -0.007191 1.828624 -0.243921 0.090881 2.195845 0.471329 -0.610865 0.000000 1.772375 -0.548426 0.145728 2.127524 0.553292 -0.169321 0.000000 -0.843709 -0.118291 -0.009680 1.464697 0.020441 0.497254 1.891276 2.005283 1.411974 -0.072955 0.546140 2.009362 1.765478
0.183333 -0.359414 -0.006194 0.011883 -0.000102 0.009323 -0.007195 1.821755 -0.243288 0.089503 2.191200 0.468598 -0.610865 0.000000 1.764319 -0.551255 0.140903 2.123584 0.552318 -0.173003 0.000000 -0.846923 -0.120169 -0.007492 1.459243 0.023560 0.498490 1.897251 2.006259 1.405235 -0.069520 0.550433 2.014311 1.767750
0.200000 -0.358487 -0.001564 0.012925 -0.000107 0.009402 -0.007205 1.814792 -0.245021 0.092644 2.184039 0.463829 -0.610865 0.000000 1.748917 -0.549325 0.126439 2.114451 0.547771 -0.183798 0.000000 -0.854781 -0.128399 -0.006956 1.450794 0.019295 0.484978 1.920830 2.029699 1.408956 -0.059867 0.557938 2.010965 1.810863
0.216667 -0.360541 -0.002708 0.012339 -0.000163 0.009425 -0.007221 1.811960 -0.245714 0.089422 2.177141 0.461404 -0.610865 0.000000 1.746907 -0.547697 0.122532 2.108578 0.547546 -0.184357 0.000000 -0.856284 -0.127518 -0.005825 1.449955 0.022056 0.485689 1.921804 2.030043 1.408649 -0.057830 0.557379 2.011220 1.811451
0.233333 -0.355655 -0.003565 0.015167 -0.000145 0.009472 -0.007279 1.801847 -0.252414 0.090108 2.170031 0.452275 -0.610865 0.000000 1.737332 -0.540928 0.116283 2.105024 0.543157 -0.196755 0.000000 -0.867313 -0.121482 -0.006170 1.450699 0.025626 0.483233 1.933858 2.033648 1.408025 -0.050428 0.549441 2.016382 1.817596
0.250000 -0.356283 -0.004042 0.015949 -0.000103 0.009494 -0.007281 1.797876 -0.255586 0.090025 2.165648 0.449065 -0.610865 0.000000 1.732601 -0.539437 0.112613 2.101663 0.542504 -0.199041 0.000000 -0.868169 -0.117795 -0.003734 1.444391 0.027804 0.485089 1.937983 2.035109 1.406256 -0.046824 0.551352 2.020633 1.820111
0.266667 -0.357304 -0.004337 0.018289 -0.000090 0.009543 -0.007259 1.792832 -0.259429 0.088523 2.160201 0.447229 -0.610865 0.000000 1.727894 -0.536298 0.108791 2.097367 0.539094 -0.206118 0.000000 -0.871456 -0.116032 -0.004794 1.437948 0.027862 0.482118 1.955619 2.040466 1.404877 -0.045346 0.551094 2.031062 1.828953
0.283333 -0.358773 -0.004348 0.018177 -0.000105 0.009557 -0.007293 1.789793 -0.260271 0.086602 2.155319 0.447460 -0.610865 0.000000 1.725802 -0.534975 0.105038 2.094178 0.539201 -0.206763 0.000000 -0.870964 -0.114051 -0.002931 1.434026 0.029047 0.483130 1.956455 2.041136 1.405867 -0.044659 0.551601 2.031782 1.829972
0.300000 -0.357459 -0.004259 0.021202 -0.000062 0.009617 -0.007295 1.781492 -0.265193 0.085009 2.150890 0.449721 -0.610865 0.000000 1.716754 -0.531992 0.099215 2.087952 0.537846 -0.212756 0.000000 -0.873331 -0.112654 -0.004899 1.421481 0.030122 0.481559 1.968813 2.046352 1.402212 -0.045804 0.556311 2.035977 1.837984
0.316667 -0.355251 0.000042 0.023103 -0.000094 0.009643 -0.007305 1.777661 -0.269221 0.088284 2.146656 0.449515 -0.610865 0.000000 1.704749 -0.527668 0.089025 2.081743 0.534616 -0.221065 0.000000 -0.878185 -0.115655 -0.005700 1.415893 0.030025 0.472058 1.979246 2.063769 1.408406 -0.043734 0.559281 2.034940 1.863425
0.333333 -0.354145 -0.001172 0.022764 -0.000104 0.009710 -0.007322 1.770343 -0.271072 0.083838 2.139630 0.446822 -0.610865 0.000000 1.697550 -0.525160 0.085742 2.075329 0.534445 -0.222016 0.000000 -0.879020 -0.114319 -0.003982 1.408812 0.030257 0.473965 1.979213 2.065978 1.403845 -0.043678 0.560305 2.034149 1.866496
0.350000 -0.351716 -0.001507 0.023809 -0.000087 0.009774 -0.007339 1.760787 -0.274714 0.080834 2.132479 0.445266 -0.610865 0.000000 1.686708 -0.520788 0.081095 2.067773 0.533104 -0.224238 0.000000 -0.881719 -0.112055 -0.002672 1.403581 0.030214 0.474002 1.980290 2.068215 1.396713 -0.043948 0.560476 2.033842 1.869700
0.366667 -0.344989 -0.000114 0.024871 -0.000103 0.009871 -0.007351 1.746090 -0.278847 0.079429 2.123307 0.439001 -0.610865 0.000000 1.667770 -0.512986 0.072882 2.057513 0.529797 -0.232841 0.000000 -0.892420 -0.111633 -0.004628 1.404007 0.031373 0.472070 1.984982 2.075001 1.395691 -0.042246 0.552106 2.033783 1.879021
0.383333 -0.341531 0.000139 0.026336 -0.000087 0.009923 -0.007345 1.734924 -0.282293 0.077987 2.116295 0.436354 -0.610865 0.000000 1.656635 -0.507565 0.069287 2.049812 0.526516 -0.233023 0.000000 -0.894788 -0.109636 -0.002585 1.395733 0.032317 0.474767 1.986954 2.077138 1.388891 -0.042481 0.554185 2.035641 1.882058
0.400000 -0.334994 0.002942 0.028016 0.000022 0.010006 -0.007383 1.717882 -0.287686 0.080279 2.109169 0.433972 -0.610865 0.000000 1.634283 -0.502663 0.060828 2.040944 0.522080 -0.239885 0.000000 -0.901437 -0.108560 -0.003422 1.385948 0.032541 0.473836 1.997434 2.086727 1.378447 -0.042482 0.546543 2.045182 1.894851
0.416667 -0.330587 0.002022 0.028495 0.000031 0.010118 -0.007407 1.699948 -0.291666 0.076657 2.097595 0.430390 -0.610865 0.000000 1.616353 -0.497345 0.056396 2.029822 0.523318 -0.240059 0.000000 -0.901560 -0.106475 -0.002346 1.370923 0.032175 0.477065 2.001322 2.089009 1.364252 -0.043605 0.550127 2.049332 1.897955
0.433333 -0.322120 0.003752 0.032181 -0.000084 0.010231 -0.007473 1.681845 -0.299997 0.075718 2.082213 0.425070 -0.610865 0.000000 1.595161 -0.483294 0.045675 2.015989 0.524034 -0.246336 0.000000 -0.911103 -0.101801 -0.005865 1.369305 0.033464 0.471768 2.005152 2.090000 1.362386 -0.040644 0.543753 2.052795 1.906329
0.450000 -0.314777 0.003708 0.032443 -0.000063 0.010314 -0.007449 1.666696 -0.303631 0.070737 2.069640 0.421647 -0.610865 0.000000 1.579108 -0.474518 0.042753 2.004629 0.516536 -0.256179 0.000000 -0.916653 -0.099535 -0.005730 1.366111 0.036965 0.469566 2.006846 2.090000 1.361491 -0.039927 0.540375 2.054676 1.915888
0.466667 -0.313093 0.004188 0.031544 -0.000120 0.010402 -0.007433 1.655628 -0.304797 0.063921 2.054910 0.420110 -0.610865 0.000000 1.571699 -0.466962 0.040382 1.993462 0.510544 -0.257839 0.000000 -0.915396 -0.099936 -0.005173 1.365177 0.040629 0.473239 2.007344 2.090000 1.357236 -0.037122 0.541360 2.056933 1.919145
0.483333 -0.306652 0.001744 0.029649 -0.000177 0.010483 -0.007472 1.641231 -0.305123 0.054645 2.039820 0.415899 -0.610865 0.000000 1.565166 -0.457878 0.042346 1.984345 0.496170 -0.280276 0.000000 -0.917487 -0.096602 -0.002741 1.373833 0.041284 0.475022 2.002224 2.090000 1.356989 -0.036391 0.536570 2.056727 1.929501
0.500000 -0.305642 0.001004 0.025967 -0.000074 0.010681 -0.007499 1.622859 -0.303938 0.046790 2.017987 0.410630 -0.610865 0.000000 1.548902 -0.453294 0.035872 1.968752 0.486280 -0.291205 0.000000 -0.913278 -0.096121 -0.000309 1.368103 0.040423 0.479762 2.001383 2.090000 1.343549 -0.037893 0.537761 2.062100 1.937350
